Coordinates
version=1
nRows=22
nColumns=24
inDegrees=yes

Units are S.I. units (second, meters, Newtons, ...)
Angles are in degrees.

endheader
time	pelvis_tilt	pelvis_list	pelvis_rotation	pelvis_tx	pelvis_ty	pelvis_tz	hip_flexion_r	hip_adduction_r	hip_rotation_r	knee_angle_r	ankle_angle_r	subtalar_angle_r	mtp_angle_r	hip_flexion_l	hip_adduction_l	hip_rotation_l	knee_angle_l	ankle_angle_l	subtalar_angle_l	mtp_angle_l	lumbar_extension	lumbar_bending	lumbar_rotation
      5.79000000	     -9.05080832	      5.55301732	      0.85629868	     -0.74921231	     -0.00558383	     -0.31969386	     25.81557601	    -12.06887338	    -11.47742493	    -65.49648013	     -3.25470715	     10.86923166	     -9.59049425	     14.07593853	     11.13311268	     11.55556592	    -12.97268587	     -0.18282657	     -7.23489852	      4.45982738	      7.70884740	     -8.29680645	      2.91173701
      5.79500000	     -8.98649498	      5.35255033	      1.12232389	     -0.74450865	     -0.00504078	     -0.32026641	     26.38454374	    -11.91954577	    -11.69733754	    -65.23640003	     -2.52215078	     11.04220998	     -9.48144668	     13.54714464	     10.99136707	     11.87854297	    -12.76773765	      0.00658716	     -7.15655905	      4.43064465	      7.52665090	     -8.14826766	      2.41467540
      5.80000000	     -8.90009744	      5.13289922	      1.37915421	     -0.73979959	     -0.00447724	     -0.32083333	     26.90513977	    -11.74239140	    -11.92821241	    -64.89028380	     -1.81691241	     11.17320616	     -9.43748283	     12.97631779	     10.81796239	     12.23006416	    -12.52363098	      0.17770637	     -7.11434620	      4.41214829	      7.32525113	     -7.97160135	      1.94586771
      5.80500000	     -8.81190563	      4.92272583	      1.61368149	     -0.73510687	     -0.00394623	     -0.32138109	     27.41513693	    -11.56085757	    -12.13100640	    -64.47919476	     -1.12302518	     11.30663482	     -9.42552201	     12.39923270	     10.63936274	     12.53658532	    -12.25648147	      0.34430011	     -7.06062319	      4.42998064	      7.13086952	     -7.79527817	      1.51069424
      5.81000000	     -8.63423003	      4.70497480	      1.81255129	     -0.73041828	     -0.00332252	     -0.32183888	     27.80785936	    -11.33724622	    -12.31313410	    -63.99612588	     -0.29986037	     11.40252396	     -9.97984451	     11.69781143	     10.42913973	     12.90692605	    -11.93356672	      0.46842344	     -7.07722833	      4.44108753	      6.83860679	     -7.60772547	      1.13689780
      5.81500000	     -8.61811147	      4.53088864	      2.00109088	     -0.72583760	     -0.00299550	     -0.32231616	     28.40002620	    -11.15224312	    -12.40860545	    -63.48717792	      0.37432314	     11.59138209	     -9.89808365	     11.22932204	     10.26538069	     13.08138852	    -11.68810782	      0.65786903	     -6.95860991	      4.53408458	      6.72238290	     -7.46434345	      0.76564338
      5.82000000	     -8.45989468	      4.33316852	      2.26073973	     -0.72126714	     -0.00248806	     -0.32280551	     28.77316685	    -10.96567038	    -12.61345388	    -62.87331048	      1.04857939	     11.66288127	    -10.15009792	     10.58101763	     10.06844779	     13.36878955	    -11.39681341	      0.82136731	     -6.77963314	      4.71037328	      6.43359093	     -7.30990856	      0.26416796
      5.82500000	     -8.41685539	      4.15279762	      2.41191298	     -0.71663719	     -0.00218792	     -0.32323237	     29.28940706	    -10.74583607	    -12.68475649	    -62.21203159	      1.68340811	     11.81906836	    -10.16484053	     10.06538468	      9.87724002	     13.51631180	    -11.10850997	      0.99552139	     -6.70489053	      4.81762953	      6.31103253	     -7.14136157	     -0.01832807
      5.83000000	     -8.21911904	      3.96720992	      2.67099491	     -0.71206117	     -0.00169797	     -0.32367494	     29.57085246	    -10.56024077	    -12.87986102	    -61.46091781	      2.33305749	     11.91096325	    -10.50001494	      9.36979155	      9.67444889	     13.76794702	    -10.79364413	      1.13112548	     -6.51996043	      5.02587425	      5.98802964	     -7.00148642	     -0.50832774
      5.83500000	     -8.17927505	      3.80118235	      2.79683481	     -0.70749443	     -0.00150565	     -0.32399061	     30.06476177	    -10.31492161	    -12.88107846	    -60.68182159	      2.93804705	     12.07225439	    -10.58695098	      8.86799324	      9.48287812	     13.90822536	    -10.51044412	      1.31734670	     -6.47526173	      5.14509199	      5.86498156	     -6.85556665	     -0.75478328
      5.84000000	     -7.93682526	      3.63173738	      3.06403491	     -0.70293626	     -0.00105522	     -0.32440983	     30.25020666	    -10.13830746	    -13.06739671	    -59.80871592	      3.60531193	     12.16809658	    -11.13650944	      8.13210534	      9.28626314	     14.16701856	    -10.20362847	      1.43963857	     -6.31219907	      5.37188889	      5.49163968	     -6.72416783	     -1.25034526
      5.84500000	     -7.75309284	      3.46192153	      3.27694170	     -0.69835616	     -0.00075054	     -0.32475683	     30.49837482	     -9.92514882	    -13.16765740	    -58.90405626	      4.38936309	     12.37313263	    -11.98491213	      7.46856116	      9.08371342	     14.40258120	     -9.91025504	      1.56587318	     -6.26821027	      5.58981099	      5.20178583	     -6.58391639	     -1.62959213
      5.85000000	     -7.58461367	      3.37736613	      3.34688640	     -0.69373773	     -0.00058731	     -0.32491744	     30.81641109	     -9.71695251	    -13.07569960	    -58.08588482	      5.83042049	     12.72325420	    -14.95955526	      6.80098849	      8.95269077	     14.54430084	     -9.57026404	      1.58721217	     -6.46184684	      5.78761120	      4.94993649	     -6.51158397	     -1.82962503
      5.85500000	     -7.62968825	      3.24585321	      3.56925549	     -0.68926888	     -0.00065898	     -0.32523440	     31.30310660	     -9.53778137	    -13.08490845	    -57.07660499	      6.28094171	     12.92018576	    -14.93634136	      6.45649322	      8.81301964	     14.76409793	     -9.41302268	      1.80722962	     -6.37008094	      5.85132544	      4.90555645	     -6.42542032	     -2.16396947
      5.86000000	     -7.43971430	      3.10058527	      3.84702837	     -0.68478257	     -0.00048194	     -0.32555873	     31.46628894	     -9.37077259	    -13.21521164	    -55.97781710	      6.79508312	     13.05814766	    -15.33306160	      5.83129450	      8.64466948	     15.10527632	     -9.21867402	      2.02706348	     -6.36094683	      5.79833404	      4.58627746	     -6.32702548	     -2.65403583
      5.86500000	     -7.24907914	      2.99162132	      4.03473032	     -0.68016392	     -0.00032015	     -0.32580907	     31.61943520	     -9.19535450	    -13.22773094	    -54.86117676	      7.56865306	     13.37896097	    -16.51666120	      5.16661982	      8.50401495	     15.46829047	     -8.97129087	      2.15529398	     -6.56202754	      5.46625876	      4.30440784	     -6.24519296	     -2.94415898
      5.87000000	     -7.30607776	      2.86294454	      4.25207251	     -0.67569892	     -0.00049138	     -0.32602817	     32.04306890	     -9.00265556	    -13.19092314	    -53.67116972	      7.91048431	     13.60331381	    -16.58625562	      4.86983149	      8.36419113	     15.70099047	     -8.87851364	      2.37341861	     -6.53018857	      5.51476615	      4.27798081	     -6.16429310	     -3.25778215
      5.87500000	     -7.19209742	      2.77002142	      4.56830549	     -0.67115330	     -0.00051062	     -0.32635853	     32.22523741	     -8.92759092	    -13.31726174	    -52.53540450	      9.09445592	     13.97342209	    -19.38242191	      4.33445071	      8.26817841	     16.27920779	     -8.75849581	      2.66920821	     -6.72232507	      4.75391836	      4.05486395	     -6.13342263	     -3.72331220
      5.88000000	     -7.19586889	      2.63947964	      4.75871238	     -0.66665394	     -0.00065080	     -0.32650269	     32.52802212	     -8.71256305	    -13.24472076	    -51.21357597	      9.34666298	     14.23592850	    -19.42308622	      3.99009797	      8.11606526	     16.48654566	     -8.68298623	      2.85349667	     -6.73655979	      4.81026774	      3.97179121	     -6.04610130	     -3.99832193
      5.88500000	     -7.05261582	      2.49335778	      5.06144360	     -0.66217380	     -0.00060581	     -0.32671056	     32.59697276	     -8.54226001	    -13.33587955	    -49.81024839	      9.59086334	     14.42172930	    -19.68511912	      3.46357219	      7.93462045	     16.93308204	     -8.57410871	      2.99963856	     -6.84940458	      4.73654684	      3.70807262	     -5.96144477	     -4.47233037
      5.89000000	     -7.01287305	      2.35114128	      5.30205618	     -0.65759827	     -0.00070972	     -0.32690783	     32.76647539	     -8.35293796	    -13.34153454	    -48.37444597	      9.84423498	     14.66862708	    -20.02182142	      3.04905446	      7.76681453	     17.33060351	     -8.47549664	      3.15305503	     -7.02324254	      4.57368968	      3.59343370	     -5.85755093	     -4.80064929
      5.89500000	     -6.88408794	      2.27254391	      5.52125121	     -0.65309116	     -0.00078252	     -0.32711176	     32.83181299	     -8.22978401	    -13.30346630	    -46.96329103	     10.41269441	     15.09846974	    -21.20776262	      2.52436131	      7.66924846	     17.86574520	     -8.38754488	      3.32987531	     -7.39610802	      3.87418347	      3.35044520	     -5.81766721	     -5.13384205
